<?xml version="1.0" encoding="UTF-8"?>
<svg id="Calque_2" data-name="Calque 2" xmlns="http://www.w3.org/2000/svg" xmlns:xlink="http://www.w3.org/1999/xlink" viewBox="0 0 66.92 36.44">
  <defs>
    <style>
      .cls-1 {
        fill: #fff;
      }

      .cls-2 {
        fill: url(#New_Gradient_Swatch_copy_2);
      }
    </style>
    <linearGradient id="New_Gradient_Swatch_copy_2" data-name="New Gradient Swatch copy 2" x1="38.75" y1="39" x2="59.07" y2="18.67" gradientUnits="userSpaceOnUse">
      <stop offset="0" stop-color="#d0e8f8"/>
      <stop offset="1" stop-color="#e1eef9"/>
    </linearGradient>
  </defs>
  <g id="Icons">
    <g id="Mostly_Cloudy" data-name="Mostly Cloudy">
      <path class="cls-1" d="M46,36.44c5.89,0,10.66-4.77,10.66-10.66s-4.77-10.66-10.66-10.66c-.04,0-.07,0-.11,0C44.95,6.61,37.74,0,28.98,0c-6.92,0-12.86,4.13-15.53,10.05-.08,0-.17,0-.25,0C5.91,10.04,0,15.95,0,23.24s5.91,13.2,13.2,13.2"/>
      <path class="cls-2" d="M60.22,36.44c3.7,0,6.7-3,6.7-6.7s-3-6.7-6.7-6.7c-.02,0-.05,0-.07,0-.6-5.34-5.12-9.49-10.62-9.49-4.34,0-8.08,2.59-9.75,6.31-.05,0-.11,0-.16,0-4.58,0-8.29,3.71-8.29,8.29s3.71,8.29,8.29,8.29"/>
    </g>
  </g>
</svg>