<?xml version="1.0" encoding="UTF-8"?>
<svg id="Calque_2" data-name="Calque 2" xmlns="http://www.w3.org/2000/svg" xmlns:xlink="http://www.w3.org/1999/xlink" viewBox="0 0 66.92 40.26">
  <defs>
    <style>
      .cls-1 {
        fill: #fff;
      }

      .cls-2 {
        fill: url(#New_Gradient_Swatch_copy_2);
      }

      .cls-3 {
        fill: url(#New_Gradient_Swatch_1);
      }
    </style>
    <linearGradient id="New_Gradient_Swatch_1" data-name="New Gradient Swatch 1" x1="39.16" y1="22.13" x2="57.49" y2="3.8" gradientUnits="userSpaceOnUse">
      <stop offset="0" stop-color="#fdb728"/>
      <stop offset="1" stop-color="#ffcd23"/>
    </linearGradient>
    <linearGradient id="New_Gradient_Swatch_copy_2" data-name="New Gradient Swatch copy 2" x1="38.75" y1="42.82" x2="59.07" y2="22.49" gradientUnits="userSpaceOnUse">
      <stop offset="0" stop-color="#d0e8f8"/>
      <stop offset="1" stop-color="#e1eef9"/>
    </linearGradient>
  </defs>
  <g id="Icons">
    <g id="Party_Cloudy" data-name="Party Cloudy">
      <circle class="cls-3" cx="48.32" cy="12.96" r="12.96"/>
      <path class="cls-1" d="M46,40.26c5.89,0,10.66-4.77,10.66-10.66s-4.77-10.66-10.66-10.66c-.04,0-.07,0-.11,0-.95-8.5-8.16-15.12-16.91-15.12-6.92,0-12.86,4.13-15.53,10.05-.08,0-.17,0-.25,0C5.91,13.86,0,19.77,0,27.06s5.91,13.2,13.2,13.2"/>
      <path class="cls-2" d="M60.22,40.26c3.7,0,6.7-3,6.7-6.7s-3-6.7-6.7-6.7c-.02,0-.05,0-.07,0-.6-5.34-5.12-9.49-10.62-9.49-4.34,0-8.08,2.59-9.75,6.31-.05,0-.11,0-.16,0-4.58,0-8.29,3.71-8.29,8.29s3.71,8.29,8.29,8.29"/>
    </g>
  </g>
</svg>