<?xml version="1.0" encoding="UTF-8"?>
<svg id="Calque_2" data-name="Calque 2" xmlns="http://www.w3.org/2000/svg" xmlns:xlink="http://www.w3.org/1999/xlink" viewBox="0 0 45.51 53.02">
  <defs>
    <style>
      .cls-1 {
        fill: url(#New_Gradient_Swatch_copy);
      }

      .cls-2 {
        fill: url(#New_Gradient_Swatch_1);
      }

      .cls-3 {
        fill: url(#New_Gradient_Swatch_1-2);
      }
    </style>
    <linearGradient id="New_Gradient_Swatch_copy" data-name="New Gradient Swatch copy" x1="6.8" y1="46.22" x2="31.57" y2="21.45" gradientUnits="userSpaceOnUse">
      <stop offset="0" stop-color="#00aeef"/>
      <stop offset="1" stop-color="#00bdf2"/>
    </linearGradient>
    <linearGradient id="New_Gradient_Swatch_1" data-name="New Gradient Swatch 1" x1="34.53" y1="20.44" x2="40.33" y2="14.64" gradientUnits="userSpaceOnUse">
      <stop offset="0" stop-color="#fdb728"/>
      <stop offset="1" stop-color="#ffcd23"/>
    </linearGradient>
    <linearGradient id="New_Gradient_Swatch_1-2" data-name="New Gradient Swatch 1" x1="27.77" y1="5" x2="31.16" y2="1.61" xlink:href="#New_Gradient_Swatch_1"/>
  </defs>
  <g id="Icons">
    <g id="Clear_Night" data-name="Clear Night">
      <path class="cls-1" d="M23.19,53.02C10.4,53.02,0,42.62,0,29.83,0,19.55,6.9,10.39,16.79,7.56c.43-.12,.88,0,1.19,.31,.31,.31,.43,.77,.31,1.19-.54,1.89-.82,3.82-.82,5.73,0,11.45,9.31,20.76,20.76,20.76,1.91,0,3.83-.28,5.73-.82,.43-.12,.88,0,1.19,.31,.31,.31,.43,.77,.31,1.19-2.84,9.88-12,16.79-22.27,16.79Z"/>
      <path class="cls-2" d="M38.22,21.99c-.43,1.59-1.14,1.59-1.57,0s-2.08-3.24-3.67-3.67-1.59-1.14,0-1.57,3.24-2.08,3.67-3.67,1.14-1.59,1.57,0,2.08,3.24,3.67,3.67,1.59,1.14,0,1.57-3.24,2.08-3.67,3.67Z"/>
      <path class="cls-3" d="M29.92,5.91c-.25,.93-.67,.93-.92,0s-1.22-1.89-2.15-2.15-.93-.67,0-.92,1.89-1.22,2.15-2.15,.67-.93,.92,0,1.22,1.89,2.15,2.15,.93,.67,0,.92-1.89,1.22-2.15,2.15Z"/>
    </g>
  </g>
</svg>