<?xml version="1.0" encoding="UTF-8"?>
<svg id="Calque_2" data-name="Calque 2" xmlns="http://www.w3.org/2000/svg" xmlns:xlink="http://www.w3.org/1999/xlink" viewBox="0 0 66.92 59.97">
  <defs>
    <style>
      .cls-1 {
        fill: url(#New_Gradient_Swatch_copy-5);
      }

      .cls-2 {
        fill: #fff;
      }

      .cls-3 {
        fill: url(#New_Gradient_Swatch_copy-6);
      }

      .cls-4 {
        fill: url(#New_Gradient_Swatch_copy_2);
      }

      .cls-5 {
        fill: url(#New_Gradient_Swatch_copy-2);
      }

      .cls-6 {
        fill: url(#New_Gradient_Swatch_copy);
      }

      .cls-7 {
        fill: url(#New_Gradient_Swatch_copy-4);
      }

      .cls-8 {
        fill: url(#New_Gradient_Swatch_copy-3);
      }
    </style>
    <linearGradient id="New_Gradient_Swatch_copy_2" data-name="New Gradient Swatch copy 2" x1="38.75" y1="39" x2="59.07" y2="18.67" gradientUnits="userSpaceOnUse">
      <stop offset="0" stop-color="#d0e8f8"/>
      <stop offset="1" stop-color="#e1eef9"/>
    </linearGradient>
    <linearGradient id="New_Gradient_Swatch_copy" data-name="New Gradient Swatch copy" x1="7.64" y1="48.29" x2="14.53" y2="48.29" gradientUnits="userSpaceOnUse">
      <stop offset="0" stop-color="#00aeef"/>
      <stop offset="1" stop-color="#00bdf2"/>
    </linearGradient>
    <linearGradient id="New_Gradient_Swatch_copy-2" data-name="New Gradient Swatch copy" x1="23.76" x2="30.64" xlink:href="#New_Gradient_Swatch_copy"/>
    <linearGradient id="New_Gradient_Swatch_copy-3" data-name="New Gradient Swatch copy" x1="39.87" x2="46.75" xlink:href="#New_Gradient_Swatch_copy"/>
    <linearGradient id="New_Gradient_Swatch_copy-4" data-name="New Gradient Swatch copy" x1="12.64" y1="55.47" x2="19.53" y2="55.47" xlink:href="#New_Gradient_Swatch_copy"/>
    <linearGradient id="New_Gradient_Swatch_copy-5" data-name="New Gradient Swatch copy" x1="29.26" y1="55.47" x2="36.14" y2="55.47" xlink:href="#New_Gradient_Swatch_copy"/>
    <linearGradient id="New_Gradient_Swatch_copy-6" data-name="New Gradient Swatch copy" x1="45.87" y1="55.47" x2="52.75" y2="55.47" xlink:href="#New_Gradient_Swatch_copy"/>
  </defs>
  <g id="Icons">
    <g id="Drizzle">
      <path class="cls-2" d="M46,36.44c5.89,0,10.66-4.77,10.66-10.66s-4.77-10.66-10.66-10.66c-.04,0-.07,0-.11,0C44.95,6.61,37.74,0,28.98,0c-6.92,0-12.86,4.13-15.53,10.05-.08,0-.17,0-.25,0C5.91,10.04,0,15.95,0,23.24s5.91,13.2,13.2,13.2"/>
      <path class="cls-4" d="M60.22,36.44c3.7,0,6.7-3,6.7-6.7s-3-6.7-6.7-6.7c-.02,0-.05,0-.07,0-.6-5.34-5.12-9.49-10.62-9.49-4.34,0-8.08,2.59-9.75,6.31-.05,0-.11,0-.16,0-4.58,0-8.29,3.71-8.29,8.29s3.71,8.29,8.29,8.29"/>
      <path class="cls-6" d="M9.64,52.79c-.34,0-.68-.09-1-.27-.96-.55-1.28-1.78-.73-2.73l2.89-5c.55-.96,1.77-1.29,2.73-.73,.96,.55,1.28,1.78,.73,2.73l-2.89,5c-.37,.64-1.04,1-1.73,1Z"/>
      <path class="cls-5" d="M25.75,52.79c-.34,0-.68-.09-1-.27-.96-.55-1.28-1.78-.73-2.73l2.89-5c.55-.96,1.77-1.29,2.73-.73,.96,.55,1.28,1.78,.73,2.73l-2.89,5c-.37,.64-1.04,1-1.73,1Z"/>
      <path class="cls-8" d="M41.87,52.79c-.34,0-.68-.09-1-.27-.96-.55-1.28-1.78-.73-2.73l2.89-5c.55-.96,1.77-1.29,2.73-.73,.96,.55,1.28,1.78,.73,2.73l-2.89,5c-.37,.64-1.04,1-1.73,1Z"/>
      <path class="cls-7" d="M14.64,59.97c-.34,0-.68-.09-1-.27-.96-.55-1.28-1.78-.73-2.73l2.89-5c.55-.96,1.77-1.29,2.73-.73,.96,.55,1.28,1.78,.73,2.73l-2.89,5c-.37,.64-1.04,1-1.73,1Z"/>
      <path class="cls-1" d="M31.25,59.97c-.34,0-.68-.09-1-.27-.96-.55-1.28-1.78-.73-2.73l2.89-5c.55-.96,1.77-1.29,2.73-.73,.96,.55,1.28,1.78,.73,2.73l-2.89,5c-.37,.64-1.04,1-1.73,1Z"/>
      <path class="cls-3" d="M47.87,59.97c-.34,0-.68-.09-1-.27-.96-.55-1.28-1.78-.73-2.73l2.89-5c.55-.96,1.77-1.29,2.73-.73,.96,.55,1.28,1.78,.73,2.73l-2.89,5c-.37,.64-1.04,1-1.73,1Z"/>
    </g>
  </g>
</svg>