<?xml version="1.0" encoding="UTF-8"?>
<svg id="Calque_2" data-name="Calque 2" xmlns="http://www.w3.org/2000/svg" xmlns:xlink="http://www.w3.org/1999/xlink" viewBox="0 0 66.92 65">
  <defs>
    <style>
      .cls-1 {
        fill: #fff;
      }

      .cls-2 {
        fill: url(#New_Gradient_Swatch_copy_2-4);
      }

      .cls-3 {
        fill: url(#New_Gradient_Swatch_copy_2-7);
      }

      .cls-4 {
        fill: url(#New_Gradient_Swatch_copy_2-6);
      }

      .cls-5 {
        fill: url(#New_Gradient_Swatch_copy_2);
      }

      .cls-6 {
        fill: url(#New_Gradient_Swatch_copy_2-2);
      }

      .cls-7 {
        fill: url(#New_Gradient_Swatch_copy_2-8);
      }

      .cls-8 {
        fill: url(#New_Gradient_Swatch_copy_2-5);
      }

      .cls-9 {
        fill: url(#New_Gradient_Swatch_copy_2-3);
      }

      .cls-10 {
        fill: url(#New_Gradient_Swatch_copy_2-9);
      }

      .cls-11 {
        fill: url(#New_Gradient_Swatch_copy_2-13);
      }

      .cls-12 {
        fill: url(#New_Gradient_Swatch_copy_2-11);
      }

      .cls-13 {
        fill: url(#New_Gradient_Swatch_copy_2-10);
      }

      .cls-14 {
        fill: url(#New_Gradient_Swatch_copy_2-12);
      }
    </style>
    <linearGradient id="New_Gradient_Swatch_copy_2" data-name="New Gradient Swatch copy 2" x1="11.14" y1="46.72" x2="15.14" y2="46.72" gradientUnits="userSpaceOnUse">
      <stop offset="0" stop-color="#d0e8f8"/>
      <stop offset="1" stop-color="#e1eef9"/>
    </linearGradient>
    <linearGradient id="New_Gradient_Swatch_copy_2-2" data-name="New Gradient Swatch copy 2" x1="21.14" x2="25.14" xlink:href="#New_Gradient_Swatch_copy_2"/>
    <linearGradient id="New_Gradient_Swatch_copy_2-3" data-name="New Gradient Swatch copy 2" x1="31.14" x2="35.14" xlink:href="#New_Gradient_Swatch_copy_2"/>
    <linearGradient id="New_Gradient_Swatch_copy_2-4" data-name="New Gradient Swatch copy 2" x1="41.14" x2="45.14" xlink:href="#New_Gradient_Swatch_copy_2"/>
    <linearGradient id="New_Gradient_Swatch_copy_2-5" data-name="New Gradient Swatch copy 2" y1="63" y2="63" xlink:href="#New_Gradient_Swatch_copy_2"/>
    <linearGradient id="New_Gradient_Swatch_copy_2-6" data-name="New Gradient Swatch copy 2" x1="21.14" y1="63" x2="25.14" y2="63" xlink:href="#New_Gradient_Swatch_copy_2"/>
    <linearGradient id="New_Gradient_Swatch_copy_2-7" data-name="New Gradient Swatch copy 2" x1="31.14" y1="63" x2="35.14" y2="63" xlink:href="#New_Gradient_Swatch_copy_2"/>
    <linearGradient id="New_Gradient_Swatch_copy_2-8" data-name="New Gradient Swatch copy 2" x1="41.14" y1="63" x2="45.14" y2="63" xlink:href="#New_Gradient_Swatch_copy_2"/>
    <linearGradient id="New_Gradient_Swatch_copy_2-9" data-name="New Gradient Swatch copy 2" x1="6.14" y1="55" x2="10.14" y2="55" xlink:href="#New_Gradient_Swatch_copy_2"/>
    <linearGradient id="New_Gradient_Swatch_copy_2-10" data-name="New Gradient Swatch copy 2" x1="16.14" y1="55" x2="20.14" y2="55" xlink:href="#New_Gradient_Swatch_copy_2"/>
    <linearGradient id="New_Gradient_Swatch_copy_2-11" data-name="New Gradient Swatch copy 2" x1="26.14" y1="55" x2="30.14" y2="55" xlink:href="#New_Gradient_Swatch_copy_2"/>
    <linearGradient id="New_Gradient_Swatch_copy_2-12" data-name="New Gradient Swatch copy 2" x1="36.14" y1="55" x2="40.14" y2="55" xlink:href="#New_Gradient_Swatch_copy_2"/>
    <linearGradient id="New_Gradient_Swatch_copy_2-13" data-name="New Gradient Swatch copy 2" x1="38.75" y1="39" x2="59.07" y2="18.67" xlink:href="#New_Gradient_Swatch_copy_2"/>
  </defs>
  <g id="Icons">
    <g id="Snow">
      <circle class="cls-5" cx="13.14" cy="46.72" r="2"/>
      <circle class="cls-6" cx="23.14" cy="46.72" r="2"/>
      <circle class="cls-9" cx="33.14" cy="46.72" r="2"/>
      <circle class="cls-2" cx="43.14" cy="46.72" r="2"/>
      <circle class="cls-8" cx="13.14" cy="63" r="2"/>
      <circle class="cls-4" cx="23.14" cy="63" r="2"/>
      <circle class="cls-3" cx="33.14" cy="63" r="2"/>
      <circle class="cls-7" cx="43.14" cy="63" r="2"/>
      <circle class="cls-10" cx="8.14" cy="55" r="2"/>
      <circle class="cls-13" cx="18.14" cy="55" r="2"/>
      <circle class="cls-12" cx="28.14" cy="55" r="2"/>
      <circle class="cls-14" cx="38.14" cy="55" r="2"/>
      <path class="cls-1" d="M46,36.44c5.89,0,10.66-4.77,10.66-10.66s-4.77-10.66-10.66-10.66c-.04,0-.07,0-.11,0C44.95,6.61,37.74,0,28.98,0c-6.92,0-12.86,4.13-15.53,10.05-.08,0-.17,0-.25,0C5.91,10.04,0,15.95,0,23.24s5.91,13.2,13.2,13.2"/>
      <path class="cls-11" d="M60.22,36.44c3.7,0,6.7-3,6.7-6.7s-3-6.7-6.7-6.7c-.02,0-.05,0-.07,0-.6-5.34-5.12-9.49-10.62-9.49-4.34,0-8.08,2.59-9.75,6.31-.05,0-.11,0-.16,0-4.58,0-8.29,3.71-8.29,8.29s3.71,8.29,8.29,8.29"/>
    </g>
  </g>
</svg>