<?xml version="1.0" encoding="UTF-8"?>
<svg id="Calque_2" data-name="Calque 2" xmlns="http://www.w3.org/2000/svg" xmlns:xlink="http://www.w3.org/1999/xlink" viewBox="0 0 66.92 59.05">
  <defs>
    <style>
      .cls-1 {
        fill: #fff;
      }

      .cls-2 {
        fill: url(#New_Gradient_Swatch_copy_2);
      }

      .cls-3 {
        fill: url(#New_Gradient_Swatch_copy-2);
      }

      .cls-4 {
        fill: url(#New_Gradient_Swatch_copy);
      }

      .cls-5 {
        fill: url(#New_Gradient_Swatch_1);
      }
    </style>
    <linearGradient id="New_Gradient_Swatch_1" data-name="New Gradient Swatch 1" x1="28.79" y1="54.72" x2="48" y2="35.51" gradientUnits="userSpaceOnUse">
      <stop offset="0" stop-color="#fdb728"/>
      <stop offset="1" stop-color="#ffcd23"/>
    </linearGradient>
    <linearGradient id="New_Gradient_Swatch_copy_2" data-name="New Gradient Swatch copy 2" x1="38.75" y1="39" x2="59.07" y2="18.67" gradientUnits="userSpaceOnUse">
      <stop offset="0" stop-color="#d0e8f8"/>
      <stop offset="1" stop-color="#e1eef9"/>
    </linearGradient>
    <linearGradient id="New_Gradient_Swatch_copy" data-name="New Gradient Swatch copy" x1="3.82" y1="51.33" x2="14.31" y2="51.33" gradientUnits="userSpaceOnUse">
      <stop offset="0" stop-color="#00aeef"/>
      <stop offset="1" stop-color="#00bdf2"/>
    </linearGradient>
    <linearGradient id="New_Gradient_Swatch_copy-2" data-name="New Gradient Swatch copy" x1="14.45" x2="24.95" xlink:href="#New_Gradient_Swatch_copy"/>
  </defs>
  <g id="Icons">
    <g id="Mix_Rainfall" data-name="Mix Rainfall">
      <path class="cls-5" d="M40.6,32.7c-1.65,0-3.67,1.17-4.5,2.6l-5.27,9.12c-.82,1.43-.15,2.5,1.49,2.38l4.3-.32c1.65-.12,2.35,.97,1.56,2.42l-4.79,8.81c-.79,1.45-.39,1.78,.88,.73l17.3-14.23c1.27-1.05,.97-1.84-.68-1.75l-6.61,.34c-1.65,.08-2.32-1.02-1.5-2.44l2.91-5.04c.82-1.43,.15-2.6-1.5-2.6h-3.61Z"/>
      <path class="cls-1" d="M46,36.44c5.89,0,10.66-4.77,10.66-10.66s-4.77-10.66-10.66-10.66c-.04,0-.07,0-.11,0C44.95,6.61,37.74,0,28.98,0c-6.92,0-12.86,4.13-15.53,10.05-.08,0-.17,0-.25,0C5.91,10.04,0,15.95,0,23.24s5.91,13.2,13.2,13.2"/>
      <path class="cls-2" d="M60.22,36.44c3.7,0,6.7-3,6.7-6.7s-3-6.7-6.7-6.7c-.02,0-.05,0-.07,0-.6-5.34-5.12-9.49-10.62-9.49-4.34,0-8.08,2.59-9.75,6.31-.05,0-.11,0-.16,0-4.58,0-8.29,3.71-8.29,8.29s3.71,8.29,8.29,8.29"/>
      <path class="cls-4" d="M5.81,58.95c-.34,0-.68-.09-1-.27-.96-.55-1.28-1.78-.73-2.73l6.5-11.26c.55-.96,1.78-1.28,2.73-.73,.96,.55,1.28,1.78,.73,2.73l-6.5,11.26c-.37,.64-1.04,1-1.73,1Z"/>
      <path class="cls-3" d="M16.45,58.95c-.34,0-.68-.09-1-.27-.96-.55-1.28-1.78-.73-2.73l6.5-11.26c.55-.96,1.78-1.28,2.73-.73,.96,.55,1.28,1.78,.73,2.73l-6.5,11.26c-.37,.64-1.04,1-1.73,1Z"/>
    </g>
  </g>
</svg>